<svg width="73" height="61" viewBox="0 0 73 61" fill="none" xmlns="http://www.w3.org/2000/svg">
<path d="M33.5 50.5C32.3075 50.5 31.1382 50.4006 30 50.2096M33.5 50.5C34.3 49.7 34.8333 46.8333 35 45.5M33.5 50.5C34.8678 50.5 36.2051 50.3692 37.5 50.1195M33.5 8.5C32.3075 8.5 31.1382 8.5994 30 8.79035M33.5 8.5C34 12.6667 34 22.7 30 29.5M33.5 8.5C34.8678 8.5 36.2051 8.63077 37.5 8.88049M14.7666 20C16.8444 21.8333 21.4 26.3 23 29.5C19.8 28.7 15.0659 25.8333 13.0989 24.5M14.7666 20C15.3983 18.757 16.15 17.5852 17.0065 16.5M14.7666 20C14.0476 21.4151 13.4841 22.9226 13.0989 24.5M17.0065 16.5C17.6192 15.7237 18.2856 14.9916 19 14.3095M17.0065 16.5C18.4476 17.8521 20.7266 20.1988 22.6421 22.6382M30 8.79035C28.2505 9.08386 26.5744 9.59369 25 10.2914M30 8.79035C30.8155 10.6363 30.8844 13.0063 30.5283 15.5M25 10.2914C26.3522 11.3609 29.3509 13.9 30.5283 15.5M25 10.2914C23.9521 10.7558 22.9493 11.3034 22 11.9259M30.5283 15.5C30.3163 16.9843 29.9538 18.5124 29.5086 20M22 11.9259C24.163 13.6172 28.6928 17.6 29.5086 20M22 11.9259C20.9277 12.6289 19.9237 13.4275 19 14.3095M29.5086 20C29.0358 21.5794 28.4699 23.1131 27.8919 24.5M19 14.3095C21.7613 16.373 27.4054 21.3 27.8919 24.5M27.8919 24.5C27.2374 26.0705 26.5674 27.4527 26 28.5C25.6327 26.847 24.2684 24.7092 22.6421 22.6382M37.5 8.88049C38 13.2537 38.1 23.5 34.5 29.5M37.5 8.88049C38.7066 9.11319 39.8765 9.44918 41 9.87889M41 9.87889C41.0584 11.5858 41.1985 13.4613 41.2056 15.5M41 9.87889C42.0398 10.2766 43.0399 10.7546 43.9927 11.3052M53.1211 22C53.0155 22.2787 52.1828 22.8292 50.9389 23.5M53.1211 22C53.6099 23.278 53.9775 24.6161 54.2096 26M53.1211 22C51.9977 19.0627 50.2337 16.4423 48 14.3095M40.7572 21.3273C40.3713 23.5719 39.6833 25.9644 38.5 28.5C39.8332 28.2037 41.6264 27.6003 43.5 26.8717M40.7572 21.3273C41.6715 22.6327 43.5 25.569 43.5 26.8717M40.7572 21.3273C41.113 19.258 41.212 17.3143 41.2056 15.5M43.5 26.8717C44.8385 26.3511 46.218 25.7667 47.5 25.1848M41.2056 15.5C42.6371 16.7899 45.9 20.5326 47.5 25.1848M47.5 25.1848C48.7927 24.598 49.9864 24.0137 50.9389 23.5M43.9927 11.3052C46.1211 14.2463 50.49 20.8027 50.9389 23.5M43.9927 11.3052C44.5095 11.6039 45.0123 11.9239 45.5 12.2641M54.2096 26C54.4006 27.1382 54.5 28.3075 54.5 29.5C54.5 37.8945 49.5745 45.1387 42.4559 48.5M54.2096 26C52.6398 27 48.9 29.2 46.5 30M13.0989 24.5C12.7075 26.1024 12.5 27.777 12.5 29.5C12.5 36.3724 15.8012 42.4738 20.9044 46.3048M61 1L45.5 12.2641M45.5 12.2641C46.3856 12.8818 47.2213 13.566 48 14.3095M48 14.3095L72 6.5M27.5 45.5C27.3333 46.2474 26.8 48.018 26 49.1211M26 49.1211C27.278 49.6099 28.6161 49.9775 30 50.2096M26 49.1211C24.1637 48.4188 22.4513 47.4661 20.9044 46.3048M31.5 45.5C31.3333 46.8064 30.8 49.5774 30 50.2096M39 46C39 47.2463 38.7 49.8151 37.5 50.1195M37.5 50.1195C39.2378 49.7844 40.8993 49.235 42.4559 48.5M43.5 46C43.5687 46.6529 43.4561 48.067 42.4559 48.5M20.9044 46.3048C16 50.2096 18 57.5 27.5 56C32.1667 54.8333 42.3 52.6 45.5 53C49.5 53.5 53.0611 55.5 52 60M22.6421 22.6382L1 30" stroke="#1C211D" stroke-width="2" stroke-linecap="round"/>
</svg>
