<svg width="84" height="66" viewBox="0 0 84 66" fill="none" xmlns="http://www.w3.org/2000/svg">
<path d="M40 55C38.8075 55 37.6382 54.9006 36.5 54.7096M40 55C40.8 54.2 41.3333 51.3333 41.5 50M40 55C41.3678 55 42.7051 54.8692 44 54.6195M40 13C38.8075 13 37.6382 13.0994 36.5 13.2904M40 13C40.5 17.1667 40.5 27.2 36.5 34M40 13C41.3678 13 42.7051 13.1308 44 13.3805M21.2666 24.5C23.3444 26.3333 27.9 30.8 29.5 34C26.3 33.2 21.5659 30.3333 19.5989 29M21.2666 24.5C21.8983 23.257 22.65 22.0852 23.5065 21M21.2666 24.5C20.5476 25.9151 19.9841 27.4226 19.5989 29M23.5065 21C24.1192 20.2237 24.7856 19.4916 25.5 18.8095M23.5065 21C24.9476 22.3521 27.2266 24.6988 29.1421 27.1382M36.5 13.2904C34.7505 13.5839 33.0744 14.0937 31.5 14.7914M36.5 13.2904C37.3155 15.1363 37.3844 17.5063 37.0283 20M31.5 14.7914C32.8522 15.8609 35.8509 18.4 37.0283 20M31.5 14.7914C30.4521 15.2558 29.4493 15.8034 28.5 16.4259M37.0283 20C36.8163 21.4843 36.4538 23.0124 36.0086 24.5M28.5 16.4259C30.663 18.1172 35.1928 22.1 36.0086 24.5M28.5 16.4259C27.4277 17.1289 26.4237 17.9275 25.5 18.8095M36.0086 24.5C35.5358 26.0794 34.9699 27.6131 34.3919 29M25.5 18.8095C28.2613 20.873 33.9054 25.8 34.3919 29M34.3919 29C33.7374 30.5705 33.0674 31.9527 32.5 33C32.1327 31.347 30.7684 29.2092 29.1421 27.1382M44 13.3805C44.5 17.7537 44.6 28 41 34M44 13.3805C45.2066 13.6132 46.3765 13.9492 47.5 14.3789M47.5 14.3789C47.5584 16.0858 47.6985 17.9613 47.7056 20M47.5 14.3789C48.5398 14.7766 49.5399 15.2546 50.4927 15.8052M59.6211 26.5C59.5155 26.7787 58.6828 27.3292 57.4389 28M59.6211 26.5C60.1099 27.778 60.4775 29.1161 60.7096 30.5M59.6211 26.5C58.4977 23.5627 56.7337 20.9423 54.5 18.8095M47.2572 25.8273C46.8713 28.0719 46.1833 30.4644 45 33C46.3332 32.7037 48.1264 32.1003 50 31.3717M47.2572 25.8273C48.1715 27.1327 50 30.069 50 31.3717M47.2572 25.8273C47.613 23.758 47.712 21.8143 47.7056 20M50 31.3717C51.3385 30.8511 52.718 30.2667 54 29.6848M47.7056 20C49.1371 21.2899 52.4 25.0326 54 29.6848M54 29.6848C55.2927 29.098 56.4864 28.5137 57.4389 28M50.4927 15.8052C52.6211 18.7463 56.99 25.3027 57.4389 28M50.4927 15.8052C51.0095 16.1039 51.5123 16.4239 52 16.7641M60.7096 30.5C60.9006 31.6382 61 32.8075 61 34C61 42.3945 56.0745 49.6387 48.9559 53M60.7096 30.5C59.1398 31.5 55.4 33.7 53 34.5M19.5989 29C19.2075 30.6024 19 32.277 19 34C19 40.8724 22.3012 46.9738 27.4044 50.8048M67.5 5.5L52 16.7641M52 16.7641C52.8856 17.3818 53.7213 18.066 54.5 18.8095M54.5 18.8095L78.5 11M34 50C33.8333 50.7474 33.3 52.518 32.5 53.6211M32.5 53.6211C33.778 54.1099 35.1161 54.4775 36.5 54.7096M32.5 53.6211C30.6637 52.9188 28.9513 51.9661 27.4044 50.8048M38 50C37.8333 51.3064 37.3 54.0774 36.5 54.7096M45.5 50.5C45.5 51.7463 45.2 54.3151 44 54.6195M44 54.6195C45.7378 54.2844 47.3993 53.735 48.9559 53M50 50.5C50.0687 51.1529 49.9561 52.567 48.9559 53M27.4044 50.8048C22.5 54.7096 24.5 62 34 60.5C38.6667 59.3333 48.8 57.1 52 57.5C56 58 59.5611 60 58.5 64.5M29.1421 27.1382L7.5 34.5" stroke="black" stroke-width="2" stroke-linecap="round"/>
<ellipse cx="68.5" cy="4.83545" rx="2.27596" ry="3.4286" transform="rotate(-24.6887 68.5 4.83545)" fill="black"/>
<ellipse cx="80.144" cy="9.92873" rx="2.27596" ry="3.4286" transform="rotate(-16.2401 80.144 9.92873)" fill="black"/>
<rect y="34" width="79" height="17" fill="#DFE0E2"/>
<path d="M14.3909 42.3617C15.1403 42.5154 15.7101 42.8175 16.1003 43.2682C16.4904 43.7086 16.6855 44.2872 16.6855 45.0042C16.6855 45.9362 16.3518 46.6532 15.6845 47.155C15.0274 47.6569 14.0572 47.9078 12.7739 47.9078H8V37.1536H12.4813C13.6312 37.1536 14.5295 37.3892 15.1763 37.8603C15.8231 38.3315 16.1465 39.0126 16.1465 39.9036C16.1465 40.5079 15.9925 41.02 15.6845 41.4399C15.3765 41.8496 14.9453 42.1569 14.3909 42.3617ZM9.12418 42.0237H12.4197C13.2513 42.0237 13.8878 41.8547 14.3293 41.5168C14.781 41.1788 15.0069 40.6872 15.0069 40.0419C15.0069 39.3966 14.781 38.905 14.3293 38.567C13.8878 38.2291 13.2513 38.0601 12.4197 38.0601H9.12418V42.0237ZM12.7739 47.0014C14.6322 47.0014 15.5613 46.3101 15.5613 44.9274C15.5613 43.5754 14.6322 42.8994 12.7739 42.8994H9.12418V47.0014H12.7739Z" fill="#1C211D"/>
<path d="M27.0226 37.1536V47.9078H25.8985V44.6508H22.6799C22.5362 44.6508 22.3309 44.6406 22.0639 44.6201L19.8002 47.9078H18.5836L21.0321 44.4204C20.2416 44.1848 19.6359 43.77 19.215 43.176C18.7941 42.5717 18.5836 41.8343 18.5836 40.9637C18.5836 39.7551 18.9634 38.818 19.7232 38.1522C20.4932 37.4865 21.5301 37.1536 22.8339 37.1536H27.0226ZM19.7232 40.933C19.7232 41.8138 19.9798 42.4949 20.4932 42.9763C21.0167 43.4474 21.7765 43.683 22.7723 43.683H25.8985V38.1369H22.8801C21.874 38.1369 21.0937 38.3776 20.5394 38.8589C19.9952 39.3301 19.7232 40.0214 19.7232 40.933Z" fill="#1C211D"/>
<path d="M35.345 42.2849C36.0534 42.459 36.6078 42.7765 37.0082 43.2374C37.4188 43.6983 37.6242 44.2514 37.6242 44.8966C37.6242 45.5214 37.4291 46.0694 37.039 46.5405C36.6488 47.0116 36.1304 47.3752 35.4836 47.6313C34.8368 47.8771 34.1336 48 33.3738 48C32.6552 48 31.9468 47.8873 31.2487 47.662C30.5608 47.4264 29.9397 47.0782 29.3853 46.6173L29.8011 45.8031C30.2734 46.2025 30.8123 46.5098 31.4181 46.7249C32.0238 46.9297 32.6346 47.0321 33.2506 47.0321C33.8358 47.0321 34.3748 46.9399 34.8676 46.7556C35.3604 46.5712 35.7505 46.3101 36.038 45.9721C36.3357 45.6238 36.4846 45.2142 36.4846 44.743C36.4846 44.1182 36.2382 43.6369 35.7454 43.2989C35.2526 42.9609 34.5596 42.7919 33.6664 42.7919H31.3565V41.8701H33.6048C34.3645 41.8701 34.9549 41.7114 35.3758 41.3939C35.807 41.0661 36.0226 40.6155 36.0226 40.0419C36.0226 39.4069 35.7505 38.9101 35.2064 38.5517C34.6623 38.183 33.9796 37.9986 33.1582 37.9986C32.6449 37.9986 32.1265 38.0754 31.6029 38.229C31.0793 38.3724 30.5813 38.5926 30.1091 38.8897L29.7241 37.9525C30.7918 37.3175 31.9468 37 33.189 37C33.918 37 34.5853 37.1178 35.191 37.3534C35.7967 37.5889 36.2741 37.9269 36.6232 38.3673C36.9825 38.8077 37.1622 39.325 37.1622 39.919C37.1622 40.4926 37.003 40.9893 36.6848 41.4092C36.3665 41.8189 35.9199 42.1108 35.345 42.2849Z" fill="#1C211D"/>
<path d="M47.3528 45.0349H41.3469L40.0533 47.9078H38.8676L43.7955 37.1536H44.9197L49.8476 47.9078H48.6464L47.3528 45.0349ZM46.937 44.1131L44.3499 38.3366L41.7627 44.1131H46.937Z" fill="#1C211D"/>
<path d="M60.9222 37.1536V47.9078H59.798V42.9455H53.0529V47.9078H51.9133V37.1536H53.0529V41.9469H59.798V37.1536H60.9222Z" fill="#1C211D"/>
<path d="M69.0731 40.9944C70.3461 40.9944 71.3163 41.2812 71.9836 41.8547C72.6612 42.4283 73 43.2682 73 44.3743C73 45.5317 72.6407 46.4125 71.922 47.0168C71.2136 47.6108 70.187 47.9078 68.8421 47.9078H64.5609V37.1536H65.6851V40.9944H69.0731ZM68.8113 47.0014C69.8071 47.0014 70.5617 46.7812 71.075 46.3408C71.5986 45.9004 71.8604 45.25 71.8604 44.3897C71.8604 42.7407 70.844 41.9162 68.8113 41.9162H65.6851V47.0014H68.8113Z" fill="#1C211D"/>
</svg>
