<svg width="67" height="55" viewBox="0 0 67 55" fill="none" xmlns="http://www.w3.org/2000/svg">
<path d="M6.58753 49.0514C7.36005 49.2051 7.94737 49.5072 8.3495 49.9579C8.75163 50.3983 8.9527 50.9769 8.9527 51.6939C8.9527 52.6259 8.60877 53.3429 7.92091 53.8447C7.24364 54.3466 6.24361 54.5975 4.92081 54.5975H0V43.8433H4.61921C5.80444 43.8433 6.7304 44.0789 7.39709 44.55C8.06378 45.0212 8.39712 45.7023 8.39712 46.5933C8.39712 47.1976 8.23839 47.7097 7.92091 48.1296C7.60344 48.5393 7.15898 48.8466 6.58753 49.0514ZM1.15877 48.7134H4.55572C5.41289 48.7134 6.069 48.5444 6.52404 48.2065C6.98967 47.8685 7.22248 47.3768 7.22248 46.7316C7.22248 46.0863 6.98967 45.5947 6.52404 45.2567C6.069 44.9187 5.41289 44.7498 4.55572 44.7498H1.15877V48.7134ZM4.92081 53.6911C6.83622 53.6911 7.79393 52.9998 7.79393 51.6171C7.79393 50.2651 6.83622 49.5891 4.92081 49.5891H1.15877V53.6911H4.92081Z" fill="#1C211D"/>
<path d="M19.608 43.8433V54.5975H18.4492V51.3405H15.1316C14.9835 51.3405 14.7718 51.3303 14.4967 51.3098L12.1633 54.5975H10.9092L13.4331 51.1101C12.6183 50.8745 11.9939 50.4597 11.5601 49.8657C11.1262 49.2614 10.9092 48.524 10.9092 47.6534C10.9092 46.4448 11.3008 45.5077 12.0839 44.8419C12.8776 44.1762 13.9464 43.8433 15.2903 43.8433H19.608ZM12.0839 47.6227C12.0839 48.5035 12.3484 49.1846 12.8776 49.666C13.4173 50.1371 14.2004 50.3727 15.2268 50.3727H18.4492V44.8266H15.338C14.3009 44.8266 13.4966 45.0673 12.9252 45.5486C12.3643 46.0198 12.0839 46.7111 12.0839 47.6227Z" fill="#1C211D"/>
<path d="M28.1864 48.9746C28.9166 49.1487 29.488 49.4662 29.9007 49.9271C30.324 50.388 30.5357 50.9411 30.5357 51.5863C30.5357 52.2111 30.3346 52.7591 29.9325 53.2302C29.5303 53.7013 28.9959 54.0649 28.3292 54.321C27.6626 54.5668 26.9377 54.6897 26.1546 54.6897C25.4138 54.6897 24.6836 54.577 23.964 54.3517C23.255 54.1161 22.6148 53.7679 22.0433 53.307L22.4719 52.4928C22.9587 52.8922 23.5143 53.1995 24.1386 53.4146C24.763 53.6194 25.3926 53.7218 26.0276 53.7218C26.6308 53.7218 27.1863 53.6296 27.6943 53.4453C28.2023 53.2609 28.6044 52.9998 28.9007 52.6618C29.2076 52.3135 29.361 51.9039 29.361 51.4327C29.361 50.8079 29.107 50.3266 28.5991 49.9886C28.0911 49.6506 27.3768 49.4816 26.4562 49.4816H24.0751V48.5598H26.3927C27.1758 48.5598 27.7843 48.4011 28.2181 48.0836C28.6626 47.7558 28.8848 47.3052 28.8848 46.7316C28.8848 46.0966 28.6044 45.5998 28.0435 45.2414C27.4827 44.8727 26.7789 44.6883 25.9323 44.6883C25.4032 44.6883 24.8688 44.7651 24.3291 44.9187C23.7894 45.0621 23.2762 45.2823 22.7894 45.5794L22.3925 44.6422C23.4931 44.0072 24.6836 43.6897 25.9641 43.6897C26.7154 43.6897 27.4033 43.8075 28.0276 44.043C28.652 44.2786 29.1441 44.6166 29.5039 45.057C29.8743 45.4974 30.0595 46.0147 30.0595 46.6087C30.0595 47.1822 29.8954 47.679 29.5674 48.0989C29.2393 48.5086 28.779 48.8005 28.1864 48.9746Z" fill="#1C211D"/>
<path d="M40.5637 51.7246H34.373L33.0396 54.5975H31.8173L36.8969 43.8433H38.0557L43.1352 54.5975H41.8971L40.5637 51.7246ZM40.1351 50.8028L37.4683 45.0263L34.8016 50.8028H40.1351Z" fill="#1C211D"/>
<path d="M54.5505 43.8433V54.5975H53.3918V49.6352H46.4391V54.5975H45.2645V43.8433H46.4391V48.6366H53.3918V43.8433H54.5505Z" fill="#1C211D"/>
<path d="M62.9522 47.6841C64.2645 47.6841 65.2645 47.9709 65.9523 48.5444C66.6508 49.118 67 49.9579 67 51.064C67 52.2214 66.6296 53.1022 65.8888 53.7065C65.1587 54.3005 64.1004 54.5975 62.7141 54.5975H58.3013V43.8433H59.4601V47.6841H62.9522ZM62.6824 53.6911C63.7089 53.6911 64.4867 53.4709 65.0158 53.0305C65.5555 52.5901 65.8254 51.9397 65.8254 51.0794C65.8254 49.4304 64.7777 48.6059 62.6824 48.6059H59.4601V53.6911H62.6824Z" fill="#1C211D"/>
<path d="M30.6535 1.54886C29.1047 0.516263 26.0069 1.03256 25.4906 3.61405C22.3927 3.09772 21.3603 5.16297 21.3603 7.22816C17.7462 7.74446 17.7462 9.80965 18.7788 11.8748C16.7136 12.3911 16.1973 14.9726 17.7462 17.0378C15.1647 19.6193 17.2299 21.6845 18.7787 22.2008C17.7461 24.7823 18.7787 26.3312 21.3602 26.8475C21.3602 30.4615 23.4254 30.9778 25.4906 30.4615C25.4906 31.7007 26.5232 32.3546 27.0395 32.5267V36.1408C27.0395 38.206 30.6535 38.206 30.6535 36.1408V32.5267C32.7187 35.005 34.956 33.5593 35.8165 32.5267V36.1408C35.8165 38.206 39.4306 38.206 39.4306 36.1408V32.5267C40.4632 32.0104 40.4632 32.0104 41.4958 30.4615C44.0773 30.9778 45.6262 29.4289 45.6262 26.8475C47.6914 26.3312 48.7239 24.7823 48.2076 22.2008C50.2728 20.6519 50.7891 18.5867 49.2402 17.0378C51.3054 14.9726 49.7565 12.3911 48.2076 11.8748C49.2402 9.80965 48.7239 7.22816 45.1099 6.71186C45.6262 4.13038 43.561 2.58149 40.9795 3.61408C40.9795 1.03259 37.8817 0 36.3328 1.5489C35.3002 -0.516292 32.2024 -0.516292 30.6535 1.54886Z" fill="#1C211D"/>
<path d="M24.9742 19.6192C26.2133 19.2062 27.2115 18.0703 27.5557 17.554C28.5883 17.554 30.7569 17.2442 31.17 16.0051C31.996 16.8312 32.891 17.0377 33.2352 17.0377C33.5794 17.0377 34.4743 16.8312 35.3003 16.0051C35.7134 17.2442 37.882 17.554 38.9146 17.554C39.2588 18.0703 40.257 19.2062 41.4961 19.6192C43.045 20.1355 43.5613 20.6518 41.4961 21.6844C40.6699 22.0974 39.4309 21.1681 38.9146 20.6518C39.0867 23.5775 38.1916 29.4289 33.2352 29.4289C28.2787 29.4289 27.3836 23.5775 27.5557 20.6518C27.0394 21.1681 25.8004 22.0974 24.9742 21.6844C22.909 20.6518 23.4253 20.1355 24.9742 19.6192Z" fill="#E7EBF3"/>
<path d="M29.1047 20.1356C29.1047 21.6845 31.6862 21.6845 31.6862 20.1356M34.784 20.1356C34.784 21.6845 37.3655 21.6845 37.3655 20.1356" stroke="#1C211D"/>
<ellipse cx="33.2352" cy="27.3638" rx="1.03259" ry="0.516297" fill="#1C211D"/>
</svg>
