<svg width="34" height="38" viewBox="0 0 34 38" fill="none" xmlns="http://www.w3.org/2000/svg">
<path d="M14.132 1.54886C12.5831 0.516263 9.48532 1.03256 8.96903 3.61405C5.87112 3.09772 4.83877 5.16297 4.83877 7.22816C1.22469 7.74446 1.22469 9.80965 2.25729 11.8748C0.192099 12.3911 -0.324198 14.9726 1.22467 17.0378C-1.35682 19.6193 0.708371 21.6845 2.25716 22.2008C1.22457 24.7823 2.25716 26.3312 4.83865 26.8475C4.83865 30.4615 6.90384 30.9778 8.96903 30.4615C8.96903 31.7007 10.0016 32.3546 10.5179 32.5267V36.1408C10.5179 38.206 14.132 38.206 14.132 36.1408V32.5267C16.1972 35.005 18.4345 33.5593 19.295 32.5267V36.1408C19.295 38.206 22.909 38.206 22.909 36.1408V32.5267C23.9416 32.0104 23.9416 32.0104 24.9742 30.4615C27.5557 30.9778 29.1046 29.4289 29.1046 26.8475C31.1698 26.3312 32.2024 24.7823 31.6861 22.2008C33.7513 20.6519 34.2676 18.5867 32.7187 17.0378C34.7839 14.9726 33.235 12.3911 31.6861 11.8748C32.7187 9.80965 32.2024 7.22816 28.5883 6.71186C29.1046 4.13038 27.0394 2.58149 24.4579 3.61408C24.4579 1.03259 21.3602 0 19.8113 1.5489C18.7787 -0.516292 15.6809 -0.516292 14.132 1.54886Z" fill="#1C211D"/>
</svg>
